<svg xmlns="http://www.w3.org/2000/svg" viewBox="0 9.470000267028809 205.14999389648438 36.37999725341797" data-asc="0.9052734375" width="205.14999389648438" height="36.37999725341797"><defs/><g fill="#000000"><g transform="translate(0, 0)"><path d="M0 45.26L0 9.47L25.88 9.47L25.88 13.70L4.74 13.70L4.74 24.66L24.54 24.66L24.54 28.86L4.74 28.86L4.74 41.04L26.71 41.04L26.71 45.26L0 45.26ZM29.76 45.26L39.23 31.79L30.47 19.34L35.96 19.34L39.94 25.42Q41.06 27.15 41.75 28.32Q42.82 26.71 43.73 25.46L48.10 19.34L53.34 19.34L44.38 31.54L54.03 45.26L48.63 45.26L43.31 37.21L41.89 35.03L35.08 45.26L29.76 45.26ZM74.61 35.77L78.93 36.33Q78.22 40.80 75.31 43.32Q72.39 45.85 68.14 45.85Q62.82 45.85 59.58 42.37Q56.35 38.89 56.35 32.40Q56.35 28.20 57.74 25.05Q59.13 21.90 61.98 20.32Q64.82 18.75 68.16 18.75Q72.39 18.75 75.07 20.89Q77.76 23.02 78.52 26.95L74.24 27.61Q73.63 25 72.08 23.68Q70.53 22.36 68.33 22.36Q65.01 22.36 62.94 24.74Q60.86 27.12 60.86 32.28Q60.86 37.50 62.87 39.87Q64.87 42.24 68.09 42.24Q70.68 42.24 72.41 40.65Q74.15 39.06 74.61 35.77ZM82.59 45.26L82.59 9.47L86.99 9.47L86.99 45.26L82.59 45.26ZM110.79 45.26L110.79 41.46Q107.76 45.85 102.56 45.85Q100.27 45.85 98.28 44.97Q96.29 44.09 95.32 42.76Q94.36 41.43 93.97 39.50Q93.70 38.21 93.70 35.40L93.70 19.34L98.10 19.34L98.10 33.72Q98.10 37.16 98.36 38.35Q98.78 40.09 100.12 41.08Q101.46 42.07 103.44 42.07Q105.42 42.07 107.15 41.05Q108.89 40.04 109.61 38.29Q110.33 36.55 110.33 33.23L110.33 19.34L114.72 19.34L114.72 45.26L110.79 45.26ZM119.85 37.52L124.19 36.84Q124.56 39.45 126.23 40.84Q127.91 42.24 130.91 42.24Q133.94 42.24 135.40 41.00Q136.87 39.77 136.87 38.11Q136.87 36.62 135.57 35.77Q134.67 35.18 131.08 34.28Q126.25 33.06 124.38 32.17Q122.51 31.27 121.55 29.70Q120.58 28.13 120.58 26.22Q120.58 24.49 121.37 23.01Q122.17 21.53 123.54 20.56Q124.56 19.80 126.33 19.27Q128.10 18.75 130.13 18.75Q133.18 18.75 135.49 19.63Q137.79 20.51 138.89 22.01Q139.99 23.51 140.41 26.03L136.11 26.61Q135.82 24.61 134.41 23.49Q133.01 22.36 130.44 22.36Q127.42 22.36 126.12 23.36Q124.83 24.37 124.83 25.71Q124.83 26.56 125.37 27.25Q125.90 27.95 127.05 28.42Q127.71 28.66 130.93 29.54Q135.60 30.79 137.44 31.58Q139.28 32.37 140.33 33.89Q141.38 35.40 141.38 37.65Q141.38 39.84 140.10 41.78Q138.82 43.73 136.40 44.79Q133.98 45.85 130.93 45.85Q125.88 45.85 123.23 43.75Q120.58 41.65 119.85 37.52ZM146.63 14.53L146.63 9.47L151.03 9.47L151.03 14.53L146.63 14.53M146.63 45.26L146.63 19.34L151.03 19.34L151.03 45.26L146.63 45.26ZM164.92 45.26L155.05 19.34L159.69 19.34L165.26 34.86Q166.16 37.38 166.92 40.09Q167.50 38.04 168.55 35.16L174.32 19.34L178.83 19.34L169.02 45.26L164.92 45.26ZM200.46 36.91L205.00 37.48Q203.93 41.46 201.03 43.65Q198.12 45.85 193.60 45.85Q187.92 45.85 184.58 42.35Q181.25 38.84 181.25 32.52Q181.25 25.98 184.62 22.36Q187.99 18.75 193.36 18.75Q198.56 18.75 201.86 22.29Q205.15 25.83 205.15 32.25Q205.15 32.64 205.13 33.42L185.79 33.42Q186.04 37.70 188.21 39.97Q190.38 42.24 193.63 42.24Q196.04 42.24 197.75 40.97Q199.46 39.70 200.46 36.91M186.04 29.81L200.51 29.81Q200.22 26.54 198.85 24.90Q196.75 22.36 193.41 22.36Q190.38 22.36 188.32 24.39Q186.25 26.42 186.04 29.81Z"/></g></g></svg>